Genre:Action | Sci-Fi 
Language:English
IMDb:http://www.imdb.com/title/tt1405412/
Source:720p HDTV

Format : AVI
Format/Info : Audio Video Interleave
File size : 1.85 GiB
Duration : 1h 33mn
Overall bit rate : 2 824 Kbps

Video
Codec ID/Hint : XviD
Duration : 1h 33mn
Bit rate : 2 429 Kbps
Width : 1 280 pixels
Height : 720 pixels
Display aspect ratio : 16:9
Frame rate : 23.976 fps
Color space : YUV
Chroma subsampling : 4:2:0
Bit depth : 8 bits
Scan type : Progressive
Bits/(Pixel*Frame) : 0.110
Stream size : 1.59 GiB (86%)
Writing library : XviD 1.2.1 (UTC 2008-12-04)

Audio
ID : 1
Format : AC-3
Format/Info : Audio Coding 3
Mode extension : CM (complete main)
Codec ID : 2000
Duration : 1h 33mn
Bit rate mode : Constant
Bit rate : 384 Kbps
Channel(s) : 6 channels
Channel positions : Front: L C R, Side: L R, LFE
Sampling rate : 48.0 KHz
Bit depth : 16 bits
Stream size : 257 MiB (14%)
Alignment : Aligned on interleaves
Interleave, duration : 32 ms (0.77 video frame)

Plot:
After a tragic accident claims the lives of Luke Gibson's (Gooding Jr.) wife and unborn child, he is left with critical injuries and complete amnesia







================================== 
http://thepiratebay.org/user/hiest
==================================
